<svg xmlns="http://www.w3.org/2000/svg" viewBox="0 0 2000 2000" width="256" height="256"><circle cx="1000" cy="1000" r="1000" fill="#26A17B"/><path d="M1123.4 905.4v-105h263.6V638H614.3v162.4H878v105c-294.6 14.5-516 75.8-516 149.5s221.4 135 516 149.5v534.8h245.4v-534.9c294-.4 515-75.7 515-149.4s-221-135-515-149.5zm0 252.3v-.2c-7.3.5-44.9 2.8-128.9 2.8-67.1 0-114.3-1.9-130.9-2.8v.3c-258.5-11.4-451.5-56.5-451.5-110.6s193-99.2 451.5-110.6v176.2c16.9 1.2 65.1 4 132 4 80 0 120-3.2 127.8-4V934.5c257.8 11.4 450.2 56.6 450.2 110.5s-192.3 99.3-450.2 110.7z" fill="#fff"/></svg>
